<svg version="1.1" id="Layer_1" xmlns="http://www.w3.org/2000/svg" xmlns:xlink="http://www.w3.org/1999/xlink" x="0px" y="0px"
	 width="100%" viewBox="0 0 512 512" enable-background="new 0 0 512 512" xml:space="preserve">
<path fill="#000000" opacity="1.000000" stroke="none" 
	d="
M303.000000,513.000000 
	C202.024521,513.000000 101.549034,513.000000 1.036777,513.000000 
	C1.036777,342.399506 1.036777,171.798981 1.036777,1.099231 
	C171.558823,1.099231 342.117737,1.099231 512.838318,1.099231 
	C512.838318,171.666550 512.838318,342.333252 512.838318,513.000000 
	C443.132294,513.000000 373.316132,513.000000 303.000000,513.000000 
M308.500275,100.724731 
	C304.836761,100.725792 301.173187,100.711411 297.509766,100.730522 
	C279.806366,100.822899 269.929260,110.592239 269.900299,128.191101 
	C269.853729,156.499893 269.850769,184.808899 269.900574,213.117676 
	C269.931274,230.559540 280.003540,240.759750 297.558258,240.841492 
	C325.866516,240.973312 354.176117,240.952805 382.484619,240.849854 
	C399.112823,240.789383 409.767670,230.204651 409.842377,213.591156 
	C409.969635,185.282852 409.966431,156.973206 409.845520,128.664856 
	C409.768768,110.696747 399.754089,100.775742 381.937561,100.739838 
	C357.791840,100.691177 333.645996,100.725151 308.500275,100.724731 
M273.117889,338.500000 
	C273.120117,353.319336 273.003082,368.139893 273.156891,382.957642 
	C273.322998,398.961975 283.890686,409.720520 299.879791,409.821747 
	C328.684723,410.004089 357.492981,410.036804 386.297211,409.804749 
	C403.079865,409.669556 413.215149,399.161011 413.252808,382.454468 
	C413.316986,353.981506 413.319458,325.508179 413.252167,297.035248 
	C413.211365,279.766296 403.246063,269.929779 385.837402,269.900543 
	C357.697418,269.853302 329.557251,269.862518 301.417206,269.894836 
	C283.401398,269.915527 273.255188,279.997620 273.137421,298.037415 
	C273.051544,311.191071 273.119080,324.345764 273.117889,338.500000 
M104.117874,315.500305 
	C104.119637,338.811584 104.023186,362.123413 104.155365,385.433960 
	C104.254585,402.932220 114.498253,413.218903 131.680954,413.254700 
	C160.153961,413.314056 188.627304,413.323517 217.100250,413.249969 
	C234.088379,413.206085 244.058792,403.197693 244.094696,386.201385 
	C244.154861,357.728394 244.150513,329.255096 244.098373,300.782074 
	C244.067032,283.664001 233.962570,273.276886 216.825775,273.173492 
	C188.187210,273.000671 159.546188,273.010651 130.907471,273.170563 
	C114.961189,273.259613 104.455978,283.990326 104.139656,300.014587 
	C104.044373,304.841522 104.120583,309.671844 104.117874,315.500305 
M152.441635,177.274719 
	C153.107178,177.271240 153.773041,177.280334 154.438202,177.262451 
	C169.410629,176.860062 178.177856,170.232910 180.018600,155.447952 
	C181.423599,144.162872 181.386734,132.507446 180.361038,121.164185 
	C179.335541,109.823097 168.999710,101.271690 157.753342,100.911507 
	C147.615417,100.586823 137.448883,100.571533 127.312920,100.929001 
	C116.409897,101.313530 106.049553,109.810722 105.176773,120.453941 
	C104.176750,132.648941 104.132103,145.057770 105.176300,157.244843 
	C106.121391,168.275238 116.375526,176.594986 127.503792,177.055206 
	C135.477936,177.384995 143.472549,177.220627 152.441635,177.274719 
M176.561905,170.017670 
	C170.623672,175.285034 167.567093,181.780609 167.709610,189.825577 
	C167.865860,198.645828 167.585144,207.475830 167.834473,216.291962 
	C168.188293,228.802032 176.741745,239.054596 189.101242,240.046570 
	C200.644730,240.973068 212.391006,240.888199 223.931519,239.894867 
	C234.685684,238.969223 243.524521,229.148499 243.964264,218.747101 
	C244.427811,207.782898 244.423126,196.769058 243.964279,185.804459 
	C243.541382,175.698502 234.750458,166.061508 224.690765,165.170151 
	C213.634705,164.190536 202.444153,163.839233 191.368896,164.378464 
	C186.551483,164.613007 181.875565,167.753342 176.561905,170.017670 
M43.973969,31.000629 
	C35.954403,32.272537 31.006851,37.856632 31.003281,45.702972 
	C30.992899,68.515648 30.994928,91.328323 31.002831,114.140999 
	C31.005310,121.297684 38.229874,128.789368 45.291130,128.992661 
	C53.301197,129.223236 59.987762,122.598076 59.995296,114.373589 
	C60.010250,98.055046 59.999821,81.736488 59.999878,65.417931 
	C59.999886,63.671574 59.999878,61.925217 59.999878,59.999851 
	C78.410156,59.999851 96.052521,60.002625 113.694893,59.998676 
	C122.476631,59.996712 129.032425,53.765450 128.994354,45.470768 
	C128.961502,38.310738 121.309120,31.003162 113.821098,31.001589 
	C90.841904,30.996756 67.862717,30.999800 43.973969,31.000629 
M476.852844,33.372398 
	C473.231079,32.581333 469.615784,31.142199 465.986450,31.105728 
	C444.499542,30.889809 423.007660,31.146479 401.521606,30.891390 
	C396.431702,30.830961 392.692474,32.271244 389.351349,36.036251 
	C385.388824,40.501415 383.980835,45.181808 386.341888,50.825939 
	C388.934875,57.024353 393.085236,59.989658 399.482758,59.995075 
	C415.807800,60.008900 432.132812,59.999794 448.457855,59.999863 
	C450.216797,59.999870 451.975769,59.999866 454.000153,59.999866 
	C454.000153,78.651581 454.114960,96.623489 453.954254,114.592926 
	C453.866943,124.360886 462.088654,128.381714 468.446503,128.882065 
	C475.362732,129.426346 482.991394,121.454834 482.995331,114.403061 
	C483.007812,92.081093 482.868469,69.757767 483.093689,47.438061 
	C483.149902,41.867966 481.591797,37.458118 476.852844,33.372398 
M30.999874,399.811340 
	C30.999767,422.625031 30.992107,445.438721 31.003399,468.252411 
	C31.007708,476.958160 37.123512,482.994324 45.928852,482.997681 
	C68.076469,483.006104 90.225739,482.856476 112.370461,483.109375 
	C117.438118,483.167236 121.205498,481.834320 124.566902,478.055817 
	C128.523941,473.607758 130.037170,468.960449 127.707161,463.293427 
	C125.142822,457.056488 120.962105,454.011810 114.652847,454.005554 
	C98.333565,453.989410 82.014259,454.000092 65.694962,454.000092 
	C63.921711,454.000092 62.148460,454.000122 59.999859,454.000122 
	C59.999859,451.808014 59.999863,450.173157 59.999855,448.538300 
	C59.999794,432.218994 59.870411,415.898285 60.047905,399.580902 
	C60.155277,389.710083 52.244267,385.825256 45.731522,385.118378 
	C39.140778,384.403107 31.363535,392.082916 30.999874,399.811340 
M483.000793,458.491211 
	C483.000732,439.511841 482.837921,420.530182 483.108978,401.554688 
	C483.181519,396.476746 481.768860,392.730713 478.002136,389.385101 
	C473.546906,385.427979 468.882721,383.973511 463.230103,386.318756 
	C457.018982,388.895721 454.010834,393.064392 454.005096,399.411560 
	C453.990295,415.727173 454.000092,432.042816 454.000092,448.358429 
	C454.000092,450.126251 454.000122,451.894043 454.000122,454.000336 
	C435.441986,454.000336 417.490112,454.119385 399.540833,453.953156 
	C389.674774,453.861786 385.771790,461.837921 385.119843,468.302612 
	C384.432281,475.120331 392.474701,482.991119 399.426941,482.995087 
	C422.402008,483.008240 445.377045,483.008759 468.352112,482.995880 
	C476.808105,482.991119 482.963501,476.868378 482.998383,468.476288 
	C483.010834,465.479584 483.000671,462.482788 483.000793,458.491211 
z"/>
<path fill="#2D3A4D" opacity="1.000000" stroke="none" 
	d="
M309.000244,100.724205 
	C333.645996,100.725151 357.791840,100.691177 381.937561,100.739838 
	C399.754089,100.775742 409.768768,110.696747 409.845520,128.664856 
	C409.966431,156.973206 409.969635,185.282852 409.842377,213.591156 
	C409.767670,230.204651 399.112823,240.789383 382.484619,240.849854 
	C354.176117,240.952805 325.866516,240.973312 297.558258,240.841492 
	C280.003540,240.759750 269.931274,230.559540 269.900574,213.117676 
	C269.850769,184.808899 269.853729,156.499893 269.900299,128.191101 
	C269.929260,110.592239 279.806366,100.822899 297.509766,100.730522 
	C301.173187,100.711411 304.836761,100.725792 309.000244,100.724205 
z"/>
<path fill="#2D3A4D" opacity="1.000000" stroke="none" 
	d="
M273.118073,338.000000 
	C273.119080,324.345764 273.051544,311.191071 273.137421,298.037415 
	C273.255188,279.997620 283.401398,269.915527 301.417206,269.894836 
	C329.557251,269.862518 357.697418,269.853302 385.837402,269.900543 
	C403.246063,269.929779 413.211365,279.766296 413.252167,297.035248 
	C413.319458,325.508179 413.316986,353.981506 413.252808,382.454468 
	C413.215149,399.161011 403.079865,409.669556 386.297211,409.804749 
	C357.492981,410.036804 328.684723,410.004089 299.879791,409.821747 
	C283.890686,409.720520 273.322998,398.961975 273.156891,382.957642 
	C273.003082,368.139893 273.120117,353.319336 273.118073,338.000000 
z"/>
<path fill="#2D3A4D" opacity="1.000000" stroke="none" 
	d="
M104.118057,315.000458 
	C104.120583,309.671844 104.044373,304.841522 104.139656,300.014587 
	C104.455978,283.990326 114.961189,273.259613 130.907471,273.170563 
	C159.546188,273.010651 188.187210,273.000671 216.825775,273.173492 
	C233.962570,273.276886 244.067032,283.664001 244.098373,300.782074 
	C244.150513,329.255096 244.154861,357.728394 244.094696,386.201385 
	C244.058792,403.197693 234.088379,413.206085 217.100250,413.249969 
	C188.627304,413.323517 160.153961,413.314056 131.680954,413.254700 
	C114.498253,413.218903 104.254585,402.932220 104.155365,385.433960 
	C104.023186,362.123413 104.119637,338.811584 104.118057,315.000458 
z"/>
<path fill="#2D3A4D" opacity="1.000000" stroke="none" 
	d="
M151.949829,177.275726 
	C143.472549,177.220627 135.477936,177.384995 127.503792,177.055206 
	C116.375526,176.594986 106.121391,168.275238 105.176300,157.244843 
	C104.132103,145.057770 104.176750,132.648941 105.176773,120.453941 
	C106.049553,109.810722 116.409897,101.313530 127.312920,100.929001 
	C137.448883,100.571533 147.615417,100.586823 157.753342,100.911507 
	C168.999710,101.271690 179.335541,109.823097 180.361038,121.164185 
	C181.386734,132.507446 181.423599,144.162872 180.018600,155.447952 
	C178.177856,170.232910 169.410629,176.860062 154.438202,177.262451 
	C153.773041,177.280334 153.107178,177.271240 151.949829,177.275726 
z"/>
<path fill="#2D3A4D" opacity="1.000000" stroke="none" 
	d="
M176.848633,169.795807 
	C181.875565,167.753342 186.551483,164.613007 191.368896,164.378464 
	C202.444153,163.839233 213.634705,164.190536 224.690765,165.170151 
	C234.750458,166.061508 243.541382,175.698502 243.964279,185.804459 
	C244.423126,196.769058 244.427811,207.782898 243.964264,218.747101 
	C243.524521,229.148499 234.685684,238.969223 223.931519,239.894867 
	C212.391006,240.888199 200.644730,240.973068 189.101242,240.046570 
	C176.741745,239.054596 168.188293,228.802032 167.834473,216.291962 
	C167.585144,207.475830 167.865860,198.645828 167.709610,189.825577 
	C167.567093,181.780609 170.623672,175.285034 176.848633,169.795807 
z"/>
<path fill="#999999" opacity="1.000000" stroke="none" 
	d="
M44.428745,31.000206 
	C67.862717,30.999800 90.841904,30.996756 113.821098,31.001589 
	C121.309120,31.003162 128.961502,38.310738 128.994354,45.470768 
	C129.032425,53.765450 122.476631,59.996712 113.694893,59.998676 
	C96.052521,60.002625 78.410156,59.999851 59.999878,59.999851 
	C59.999878,61.925217 59.999886,63.671574 59.999878,65.417931 
	C59.999821,81.736488 60.010250,98.055046 59.995296,114.373589 
	C59.987762,122.598076 53.301197,129.223236 45.291130,128.992661 
	C38.229874,128.789368 31.005310,121.297684 31.002831,114.140999 
	C30.994928,91.328323 30.992899,68.515648 31.003281,45.702972 
	C31.006851,37.856632 35.954403,32.272537 44.428745,31.000206 
z"/>
<path fill="#999999" opacity="1.000000" stroke="none" 
	d="
M477.119873,33.647549 
	C481.591797,37.458118 483.149902,41.867966 483.093689,47.438061 
	C482.868469,69.757767 483.007812,92.081093 482.995331,114.403061 
	C482.991394,121.454834 475.362732,129.426346 468.446503,128.882065 
	C462.088654,128.381714 453.866943,124.360886 453.954254,114.592926 
	C454.114960,96.623489 454.000153,78.651581 454.000153,59.999866 
	C451.975769,59.999866 450.216797,59.999870 448.457855,59.999863 
	C432.132812,59.999794 415.807800,60.008900 399.482758,59.995075 
	C393.085236,59.989658 388.934875,57.024353 386.341888,50.825939 
	C383.980835,45.181808 385.388824,40.501415 389.351349,36.036251 
	C392.692474,32.271244 396.431702,30.830961 401.521606,30.891390 
	C423.007660,31.146479 444.499542,30.889809 465.986450,31.105728 
	C469.615784,31.142199 473.231079,32.581333 477.119873,33.647549 
z"/>
<path fill="#999999" opacity="1.000000" stroke="none" 
	d="
M31.000004,399.354340 
	C31.363535,392.082916 39.140778,384.403107 45.731522,385.118378 
	C52.244267,385.825256 60.155277,389.710083 60.047905,399.580902 
	C59.870411,415.898285 59.999794,432.218994 59.999855,448.538300 
	C59.999863,450.173157 59.999859,451.808014 59.999859,454.000122 
	C62.148460,454.000122 63.921711,454.000092 65.694962,454.000092 
	C82.014259,454.000092 98.333565,453.989410 114.652847,454.005554 
	C120.962105,454.011810 125.142822,457.056488 127.707161,463.293427 
	C130.037170,468.960449 128.523941,473.607758 124.566902,478.055817 
	C121.205498,481.834320 117.438118,483.167236 112.370461,483.109375 
	C90.225739,482.856476 68.076469,483.006104 45.928852,482.997681 
	C37.123512,482.994324 31.007708,476.958160 31.003399,468.252411 
	C30.992107,445.438721 30.999767,422.625031 31.000004,399.354340 
z"/>
<path fill="#999999" opacity="1.000000" stroke="none" 
	d="
M483.000793,458.988647 
	C483.000671,462.482788 483.010834,465.479584 482.998383,468.476288 
	C482.963501,476.868378 476.808105,482.991119 468.352112,482.995880 
	C445.377045,483.008759 422.402008,483.008240 399.426941,482.995087 
	C392.474701,482.991119 384.432281,475.120331 385.119843,468.302612 
	C385.771790,461.837921 389.674774,453.861786 399.540833,453.953156 
	C417.490112,454.119385 435.441986,454.000336 454.000122,454.000336 
	C454.000122,451.894043 454.000092,450.126251 454.000092,448.358429 
	C454.000092,432.042816 453.990295,415.727173 454.005096,399.411560 
	C454.010834,393.064392 457.018982,388.895721 463.230103,386.318756 
	C468.882721,383.973511 473.546906,385.427979 478.002136,389.385101 
	C481.768860,392.730713 483.181519,396.476746 483.108978,401.554688 
	C482.837921,420.530182 483.000732,439.511841 483.000793,458.988647 
z"/>
</svg>